<svg xmlns="http://www.w3.org/2000/svg" fill="none" viewBox="0 0 111 50" height="50" width="111">
<path fill="#006164" d="M53.0466 23.0558C61.7322 23.0558 62.7383 18.8223 62.7383 15.6408H62.7419V0H65.7493V15.6408C65.7493 20.3199 63.5066 25.9012 53.0283 25.9012C42.55 25.9012 40.3475 20.3236 40.3475 15.6408V0H43.3549V15.6408C43.3549 18.8223 44.361 23.0558 53.0466 23.0558ZM0 0.00365408H19.0651C28.4568 0.00365408 33.2167 3.34221 33.2167 9.92436C33.2167 13.1643 31.7935 15.6883 28.98 17.4233C26.3238 19.0634 22.786 19.8962 18.4724 19.8962H3.44277V34.5691H0V0.00365408ZM3.44277 16.6745H19.0651C22.4457 16.6745 25.1458 16.0244 27.0958 14.7386C28.9324 13.5259 29.8252 11.9516 29.8252 9.92436C29.8252 8.25508 29.8252 3.17419 19.0651 3.17419H3.44277V16.6745ZM109.496 33.024C108.661 31.6469 108.237 29.5393 108.237 26.7523C108.237 24.1151 107.776 22.1317 106.839 20.7108C105.983 19.3374 104.673 18.2963 102.932 17.5987C104.469 16.8681 105.734 15.9002 106.715 14.7094C108.017 13.0876 108.654 11.2868 108.614 9.33993C108.493 6.12191 107.216 3.71479 104.823 2.18431C102.53 0.715931 99.1416 0 94.4659 0H75.3459V34.5654H78.7887V19.4067H94.2501C98.7246 19.4067 101.732 20.0642 103.199 21.3682C104.293 22.3143 104.845 24.0676 104.845 26.5879C104.845 29.5393 105.215 32.0012 105.939 33.9079L106.188 34.5654H110.429L109.492 33.0203L109.496 33.024ZM102.208 14.4427C100.217 15.6372 97.5026 16.2399 94.1403 16.2399H78.7887V3.17054H94.7366C105.039 3.17054 105.182 7.8679 105.226 9.40934C105.288 11.579 104.304 13.2264 102.208 14.4427ZM40.3475 31.2779H65.7493V33.8239H40.3475V31.2779ZM7.06854 48.0474L7.06671 48.0492L6.06973 47.043C5.55753 47.5507 4.79287 47.8283 4.11603 47.8283C2.19525 47.8283 1.45254 46.4878 1.44157 45.202C1.43059 43.9053 2.23915 42.51 4.11603 42.51C4.79287 42.51 5.4807 42.7437 5.99291 43.2405L6.96976 42.2981C6.16852 41.5128 5.16971 41.1146 4.11603 41.1146C1.30986 41.1146 -0.0109081 43.1748 6.78347e-05 45.202C0.0110437 47.2183 1.23303 49.2017 4.11603 49.2017C5.23471 49.2017 6.26938 48.8333 7.06671 48.0492L7.06854 48.0511V48.0474ZM13.42 49.2017C16.1494 49.2017 17.3823 47.1964 17.4043 45.191C17.4262 43.1638 16.1055 41.1146 13.42 41.1146C10.7346 41.1146 9.42479 43.1638 9.42479 45.202C9.42479 47.2402 10.6907 49.2017 13.42 49.2017ZM13.42 47.8612C11.5907 47.8612 10.9029 46.4987 10.87 45.2239C10.8334 43.9163 11.587 42.4442 13.42 42.4442C15.253 42.4442 15.9847 43.9053 15.9628 45.213C15.9408 46.4878 15.2493 47.8612 13.42 47.8612ZM22.1677 41.2681V47.6713H26.1629V49.0228H20.7042V41.2681H22.1677ZM32.3717 49.0228C35.09 49.0228 36.2864 47.0394 36.2535 45.0779C36.2205 43.1639 35.0351 41.2681 32.3717 41.2681H29.3204V49.0228H32.3717ZM32.3717 47.6165H30.7728V42.6525H32.3717C34.0583 42.6525 34.7681 43.8615 34.801 45.0669C34.8339 46.3308 34.1351 47.6165 32.3717 47.6165ZM43.3805 44.7929H39.2865V46.0348H43.3805V44.7929ZM48.2098 46.7398H50.4086C54.2172 46.7398 54.2026 41.2572 50.4086 41.2572C49.7976 41.2572 49.1875 41.2599 48.5775 41.2626C47.9674 41.2654 47.3573 41.2681 46.7463 41.2681V49.0228H48.2098V46.7398ZM50.4086 45.3993H48.2098V42.6525H50.4086C52.2745 42.6525 52.2818 45.3993 50.4086 45.3993ZM63.3601 49.0228H61.6186L59.3576 46.4294H57.949V49.0228H56.4855V41.2572C57.1025 41.2572 57.7194 41.2599 58.3359 41.2626L58.3373 41.2626C58.9524 41.2654 59.567 41.2681 60.1808 41.2681C62.0101 41.2791 62.976 42.4991 62.976 43.8396C62.976 44.9025 62.4894 45.9764 61.0113 46.276L63.3638 48.9242V49.0228H63.3601ZM57.9453 42.6306V45.1144H60.1771C61.1101 45.1144 61.5088 44.4934 61.5088 43.8725C61.5088 43.2515 61.0991 42.6306 60.1771 42.6306H57.9453ZM66.1627 49.0228H71.9763V47.5836H67.6152V45.834H71.8226V44.4715H67.6152V42.6854H71.9763V41.2681H66.1627V49.0228ZM80.124 43.1419C79.8569 42.7 79.1252 42.2799 78.2801 42.2799C77.1935 42.2799 76.6703 42.7328 76.6703 43.31C76.6703 43.9857 77.4678 44.1757 78.4008 44.2852C80.0216 44.4861 81.5289 44.9062 81.5289 46.7545C81.5289 48.4822 79.9996 49.2237 78.2654 49.2237C76.6776 49.2237 75.4593 48.7342 74.8812 47.317L76.1032 46.6851C76.4471 47.5398 77.3471 47.916 78.291 47.916C79.235 47.916 80.0765 47.5946 80.0765 46.7545C80.0765 46.0239 79.3118 45.7244 78.2764 45.6148C76.6886 45.4249 75.2251 45.0048 75.2251 43.2661C75.2251 41.6699 76.7983 41.0161 78.2325 41.0051C79.4399 41.0051 80.6948 41.3485 81.2838 42.5465L80.1204 43.1456L80.124 43.1419ZM87.8402 42.2799C88.6853 42.2799 89.417 42.7 89.6841 43.1419L90.8402 42.5465C90.2512 41.3485 88.9963 41.0051 87.7889 41.0051C86.3548 41.0161 84.7816 41.6699 84.7816 43.2661C84.7816 45.0048 86.245 45.4249 87.8328 45.6148C88.8682 45.7244 89.6329 46.0239 89.6329 46.7545C89.6329 47.5946 88.7914 47.916 87.8475 47.916C86.9036 47.916 86.0035 47.5398 85.6596 46.6851L84.4413 47.317C85.0194 48.7342 86.2377 49.2237 87.8255 49.2237C89.5597 49.2237 91.089 48.4822 91.089 46.7545C91.089 44.9062 89.5817 44.4861 87.9609 44.2852C87.028 44.1757 86.2304 43.9857 86.2304 43.31C86.2304 42.7328 86.7535 42.2799 87.8402 42.2799ZM100.239 49.0228H94.4256V41.2681H100.239V42.6854H95.8781V44.4715H100.086V45.834H95.8781V47.5836H100.239V49.0228ZM106.55 49.0228C109.269 49.0228 110.465 47.0394 110.432 45.0779C110.399 43.1639 109.214 41.2681 106.55 41.2681H103.499V49.0228H106.55ZM106.55 47.6165H104.952V42.6525H106.55C108.237 42.6525 108.947 43.8615 108.98 45.0669C109.013 46.3308 108.314 47.6165 106.55 47.6165Z" clip-rule="evenodd" fill-rule="evenodd"></path>
</svg>
